<svg
  width="130"
  height="40"
  viewBox="-20 0 170 24"
  fill="none"
  xmlns="http://www.w3.org/2000/svg"
  style="background-color: #000;"
>
  <path
    d="M51.2087 2.12275C51.2324 1.93051 51.2143 1.73551 51.1554 1.55065C51.0965 1.36578 50.9982 1.19526 50.867 1.05033C50.7358 0.905409 50.5747 0.789386 50.3943 0.709926C50.2139 0.630467 50.0183 0.58938 49.8205 0.58938C49.6227 0.58938 49.4272 0.630467 49.2468 0.709926C49.0664 0.789386 48.9053 0.905409 48.7741 1.05033C48.6429 1.19526 48.5446 1.36578 48.4857 1.55065C48.4268 1.73551 48.4086 1.93051 48.4324 2.12275V11.4867C48.4324 17.9988 44.3035 21.4358 39.1056 21.4358C33.9078 21.4358 29.789 17.9988 29.789 11.4867V2.15251C29.8186 1.95719 29.8048 1.75792 29.7487 1.56827C29.6925 1.37862 29.5952 1.20306 29.4635 1.05353C29.3317 0.904014 29.1686 0.784051 28.9853 0.701821C28.8019 0.619591 28.6026 0.577026 28.4009 0.577026C28.1992 0.577026 27.9998 0.619591 27.8165 0.701821C27.6331 0.784051 27.47 0.904014 27.3382 1.05353C27.2065 1.20306 27.1092 1.37862 27.053 1.56827C26.9969 1.75792 26.9831 1.95719 27.0127 2.15251V11.3577C27.0127 19.6999 32.4386 24 39.1107 24C45.7828 24 51.2137 19.695 51.2137 11.3577V2.12771L51.2087 2.12275Z"
    fill="#FFF"
  />
  <path
    fill="#FFF"
    d="M12.6046 21.3267H12.0422C6.8697 21.3267 2.77625 17.1903 2.77625 11.4073V1.95908C2.77625 1.59866 2.63 1.25301 2.36968 0.998154C2.10935 0.7433 1.75628 0.600124 1.38813 0.600124C1.01997 0.600124 0.666897 0.7433 0.406573 0.998154C0.146249 1.25301 0 1.59866 0 1.95908V11.2932C0 18.9907 5.34986 23.8562 11.946 23.9355H12.6046C13.6786 23.9355 14.1852 23.3552 14.1852 22.6361C14.1852 21.9169 13.6786 21.3267 12.6046 21.3267Z"/>
  <path
    fill="#FFF"
    d="M66.4223 21.8772C66.3955 22.0708 66.4114 22.2677 66.4687 22.4547C66.5261 22.6417 66.6237 22.8146 66.7549 22.9617C66.8861 23.1088 67.048 23.2266 67.2296 23.3074C67.4113 23.3882 67.6084 23.43 67.8079 23.43C68.0074 23.43 68.2046 23.3882 68.3862 23.3074C68.5678 23.2266 68.7297 23.1088 68.8609 22.9617C68.9922 22.8146 69.0898 22.6417 69.1471 22.4547C69.2045 22.2677 69.2203 22.0708 69.1935 21.8772V12.5183C69.1935 6.00124 73.3224 2.59888 78.5203 2.59888C83.7182 2.59888 87.8471 6.00124 87.8471 12.548V21.8227C87.8175 22.018 87.8312 22.2173 87.8874 22.4069C87.9436 22.5966 88.0409 22.7721 88.1726 22.9217C88.3043 23.0712 88.4675 23.1912 88.6508 23.2734C88.8342 23.3556 89.0335 23.3982 89.2352 23.3982C89.4369 23.3982 89.6362 23.3556 89.8196 23.2734C90.003 23.1912 90.1661 23.0712 90.2979 22.9217C90.4296 22.7721 90.5269 22.5966 90.583 22.4069C90.6392 22.2173 90.6529 22.018 90.6233 21.8227V12.6472C90.6233 4.30502 85.1924 0 78.5254 0C71.8583 0 66.4274 4.30502 66.4274 12.6472V21.8723L66.4223 21.8772Z"/>
  <path
    fill="#FFF"
    d="M129.987 2.12275C130.014 1.92923 129.998 1.73234 129.941 1.54529C129.884 1.35825 129.786 1.18539 129.655 1.03832C129.524 0.891245 129.362 0.773368 129.18 0.692601C128.998 0.611834 128.801 0.570048 128.602 0.570048C128.402 0.570048 128.205 0.611834 128.023 0.692601C127.842 0.773368 127.68 0.891245 127.549 1.03832C127.417 1.18539 127.32 1.35825 127.263 1.54529C127.205 1.73234 127.189 1.92923 127.216 2.12275V11.4867C127.216 17.9988 123.087 21.4358 117.894 21.4358C112.702 21.4358 108.558 18.0037 108.558 11.4867V2.15251C108.587 1.95719 108.573 1.75792 108.517 1.56827C108.461 1.37862 108.364 1.20306 108.232 1.05353C108.1 0.904014 107.937 0.784051 107.754 0.701821C107.57 0.619591 107.371 0.577026 107.169 0.577026C106.968 0.577026 106.768 0.619591 106.585 0.701821C106.402 0.784051 106.239 0.904014 106.107 1.05353C105.975 1.20306 105.878 1.37862 105.822 1.56827C105.765 1.75792 105.752 1.95719 105.781 2.15251V11.3577C105.781 19.6999 111.207 24 117.884 24C124.562 24 129.982 19.695 129.982 11.3577V2.12771L129.987 2.12275Z"/>
</svg>
